#!OML:ASF X:\für Bonn\!DataBase\2005_08_10_Bjorn_Final\c3d\bjorn.ASF
:FULLY-SPECIFIED
:DEGREES
359
root 13.76 19.1942 -0.202122 -417.228 88.3897 -422.869
lowerback -2.88335 0.937199 -3.06267
upperback 4.15567 1.682 -2.97396
thorax 5.94213 0.809677 -1.23931
lowerneck 0.747308 -0.731076 7.05842
upperneck 19.1219 0.264615 -6.12022
head 5.6221 0.447636 -3.08992
rclavicle -6.75868e-015 -2.22639e-014
rhumerus -37.1574 -39.5197 -66.9933
rradius 13.7304
rwrist 30.4934
rhand -5.56381 6.31255
rfingers 7.12502
rthumb 20.2516 -22.6517
lclavicle -6.75868e-015 -2.22639e-014
lhumerus -17.9875 13.4416 79.7562
lradius 13.2361
lwrist -51.4698
lhand -12.5335 -12.5547
lfingers 7.12502
lthumb 13.5429 16.9849
rfemur -5.02753 1.03485 11.9321
rtibia 35.0134
rfoot -10.0414 12.8984
rtoes -22.0191
lfemur -11.603 12.2797 -18.0783
ltibia 29.5989
lfoot -18.7841 -11.7312
ltoes -6.36526
360
root 13.7805 19.1939 -0.205013 -414.906 88.35 -420.439
lowerback -2.69449 0.878977 -3.19894
upperback 4.2398 1.60355 -2.90319
thorax 5.917 0.763755 -1.09848
lowerneck 0.69923 -0.632083 6.84581
upperneck 19.0064 0.388217 -6.08287
head 5.6027 0.490515 -3.03536
rclavicle -3.97569e-015 -1.74931e-014
rhumerus -36.4486 -38.4446 -68.0466
rradius 14.0085
rwrist 29.4265
rhand -4.43174 5.21718
rfingers 7.12502
rthumb 21.3393 -23.6279
lclavicle -3.97569e-015 -1.74931e-014
lhumerus -17.7872 11.2828 80.4426
lradius 13.6226
lwrist -50.501
lhand -10.1756 -13.0244
lfingers 7.12502
lthumb 15.8145 16.3497
rfemur -5.87766 1.05259 12.077
rtibia 36.7839
rfoot -9.77498 12.1291
rtoes -21.9344
lfemur -11.26 12.2342 -18.0572
ltibia 29.3484
lfoot -18.8001 -11.6042
ltoes -6.40432
361
root 13.8048 19.1968 -0.20757 -412.647 88.3039 -418.091
lowerback -2.52919 0.855276 -3.30455
upperback 4.31191 1.57095 -2.8506
thorax 5.89433 0.742329 -0.989675
lowerneck 0.615565 -0.57142 6.63403
upperneck 18.9544 0.456782 -6.01224
head 5.60548 0.509844 -2.97359
rclavicle -6.36111e-015 2.06736e-014
rhumerus -35.8083 -37.0997 -69.2502
rradius 14.5089
rwrist 27.7461
rhand -3.37872 4.10733
rfingers 7.12502
rthumb 22.3505 -24.6198
lclavicle -6.36111e-015 2.06736e-014
lhumerus -17.7365 8.70016 81.2056
lradius 14.3575
lwrist -48.751
lhand -7.64979 -12.5887
lfingers 7.12502
lthumb 18.2458 16.5756
rfemur -6.81123 1.03773 12.2253
rtibia 38.6304
rfoot -9.35851 11.4048
rtoes -21.3054
lfemur -10.8953 12.2869 -18.0357
ltibia 29.0146
lfoot -18.8076 -11.4908
ltoes -6.88284
362
root 13.8319 19.2057 -0.210496 -410.813 88.2635 -416.18
lowerback -2.38027 0.817725 -3.40773
upperback 4.40069 1.52153 -2.79752
thorax 5.89915 0.712401 -0.882619
lowerneck 0.464267 -0.496729 6.43247
upperneck 18.9123 0.540099 -5.94986
head 5.62366 0.534878 -2.91582
rclavicle 9.54166e-015 -9.54166e-015
rhumerus -35.1336 -35.3285 -70.6927
rradius 15.2037
rwrist 25.4757
rhand -2.50825 3.12156
rfingers 7.12502
rthumb 23.1858 -25.5029
lclavicle 9.54166e-015 -9.54166e-015
lhumerus -17.7888 6.26413 81.943
lradius 15.354
lwrist -46.5365
lhand -4.68133 -11.5018
lfingers 7.12502
lthumb 21.0996 17.3702
rfemur -7.83673 0.970326 12.3732
rtibia 40.5247
rfoot -8.73549 10.7246
rtoes -20.4063
lfemur -10.4668 12.3249 -18.0111
ltibia 28.5571
lfoot -18.7236 -11.4282
ltoes -7.03276
363
root 13.8633 19.223 -0.21326 -410.352 88.2262 -415.633
lowerback -2.20471 0.77069 -3.49727
upperback 4.49835 1.4571 -2.73508
thorax 5.89851 0.675459 -0.77479
lowerneck 0.273701 -0.41203 6.23961
upperneck 18.8721 0.634942 -5.89323
head 5.64973 0.564808 -2.86086
rclavicle 9.93923e-015 -3.65764e-014
rhumerus -34.5261 -33.3241 -72.2001
rradius 16.0665
rwrist 22.7619
rhand -1.92585 2.34892
rfingers 7.12502
rthumb 23.7445 -26.2041
lclavicle 9.93923e-015 -3.65764e-014
lhumerus -17.8606 4.13799 82.6308
lradius 16.4026
lwrist -44.2417
lhand -1.93678 -10.0331
lfingers 7.12502
lthumb 23.734 18.5213
rfemur -8.92596 0.868623 12.541
rtibia 42.4337
rfoot -8.04505 10.0829
rtoes -19.3944
lfemur -9.94464 12.445 -17.948
ltibia 27.9667
lfoot -18.5547 -11.4996
ltoes -7.20705
364
root 13.8979 19.2445 -0.215506 -409.909 88.1887 -415.123
lowerback -2.05091 0.72121 -3.59628
upperback 4.62489 1.39212 -2.65919
thorax 5.94091 0.63688 -0.647239
lowerneck -0.0586275 -0.320279 6.02062
upperneck 18.8818 0.730893 -5.82008
head 5.71554 0.591892 -2.79682
rclavicle -1.07344e-014 1.11319e-014
rhumerus -34.0018 -31.4364 -73.5687
rradius 17.0135
rwrist 20.1461
rhand -1.58416 1.90287
rfingers 7.12502
rthumb 24.0722 -26.6073
lclavicle -1.07344e-014 1.11319e-014
lhumerus -17.8757 2.28702 83.2754
lradius 17.4729
lwrist -41.9222
lhand 0.205595 -8.50316
lfingers 7.12502
lthumb 25.7873 19.7692
rfemur -10.0866 0.74251 12.7162
rtibia 44.317
rfoot -7.45573 9.51488
rtoes -18.6856
lfemur -9.3976 12.5592 -17.887
ltibia 27.2867
lfoot -18.3528 -11.5277
ltoes -7.36121
365
root 13.9333 19.2636 -0.217686 -409.36 88.1733 -414.531
lowerback -1.91779 0.669753 -3.6874
upperback 4.75678 1.32783 -2.61301
thorax 6.00238 0.599733 -0.554554
lowerneck -0.45452 -0.237881 5.88218
upperneck 18.9291 0.815538 -5.78865
head 5.80337 0.615386 -2.76054
rclavicle 0 3.65764e-014
rhumerus -33.5988 -29.7169 -74.8316
rradius 18.0182
rwrist 17.6311
rhand -1.46842 1.66719
rfingers 7.12502
rthumb 24.1832 -26.8282
lclavicle 0 3.65764e-014
lhumerus -17.901 0.566665 83.8368
lradius 18.5661
lwrist -39.6189
lhand 1.59035 -6.9692
lfingers 7.12502
lthumb 27.1128 21.1037
rfemur -11.269 0.545951 12.8595
rtibia 46.1296
rfoot -7.00491 9.15696
rtoes -17.9713
lfemur -8.87829 12.7906 -17.8478
ltibia 26.5953
lfoot -18.1367 -11.6548
ltoes -7.73288
366
root 13.9674 19.2764 -0.218633 -410.022 88.1657 -415.129
lowerback -1.74366 0.618031 -3.75847
upperback 4.89455 1.26001 -2.56113
thorax 6.04712 0.561849 -0.46774
lowerneck -0.790215 -0.168883 5.75214
upperneck 18.8974 0.882696 -5.76838
head 5.85505 0.630234 -2.72894
rclavicle -1.59028e-015 7.95139e-015
rhumerus -33.3355 -28.1627 -75.9196
rradius 19.0232
rwrist 15.2613
rhand -1.54224 1.75165
rfingers 7.12502
rthumb 24.1124 -26.7531
lclavicle -1.59028e-015 7.95139e-015
lhumerus -17.9128 -0.881119 84.3379
lradius 19.6311
lwrist -37.5321
lhand 2.51645 -5.4898
lfingers 7.12502
lthumb 27.9984 22.4418
rfemur -12.4009 0.275924 13.0322
rtibia 47.8344
rfoot -6.60606 9.00431
rtoes -16.9281
lfemur -8.37627 13.0732 -17.7613
ltibia 25.9801
lfoot -17.9124 -11.9397
ltoes -7.68559
